Coordinates
version=1
nRows=30
nColumns=34
inDegrees=no

Units are S.I. units (second, meters, Newtons, ...)
If the header above contains a line with 'inDegrees', this indicates whether rotational values are in degrees (yes) or radians (no).

endheader
time	pelvis_tilt	pelvis_list	pelvis_rotation	pelvis_tx	pelvis_ty	pelvis_tz	hip_flexion_r	hip_adduction_r	hip_rotation_r	knee_angle_r	ankle_angle_r	subtalar_angle_r	mtp_angle_r	hip_flexion_l	hip_adduction_l	hip_rotation_l	knee_angle_l	ankle_angle_l	subtalar_angle_l	mtp_angle_l	lumbar_extension	lumbar_bending	lumbar_rotation	arm_flex_r	arm_add_r	arm_rot_r	elbow_flex_r	pro_sup_r	arm_flex_l	arm_add_l	arm_rot_l	elbow_flex_l	pro_sup_l
2.03	-0.428681	0.118939	-0.113685	-0.302514	0.713982	-0.560801	1.35449	-0.0956178	0.251077	1.50479	0.497971	-0.526428	0	1.28184	-0.207531	-0.0287059	1.47635	0.450956	-0.610865	0	-0.0904445	-0.0542948	0.111327	2.49139	-0.0508407	0.44287	1.52529	2.03171	2.5095	-0.203837	0.615396	1.55631	1.77744
2.04	-0.426351	0.122203	-0.119925	-0.296232	0.727197	-0.56027	1.32312	-0.0943208	0.23871	1.46557	0.499161	-0.479338	0	1.2473	-0.201737	-0.0497222	1.4352	0.439947	-0.607267	0	-0.0664746	-0.056613	0.12096	2.54774	-0.056013	0.471255	1.47638	1.98712	2.57429	-0.20109	0.651207	1.49617	1.76352
2.05	-0.422682	0.124717	-0.125089	-0.2897	0.741438	-0.559762	1.28841	-0.0942652	0.22549	1.42302	0.49664	-0.429523	0	1.20914	-0.195117	-0.0696513	1.39019	0.442445	-0.560423	0	-0.0444177	-0.0568285	0.127316	2.59995	-0.058469	0.501946	1.42558	1.94996	2.63521	-0.199861	0.69075	1.43607	1.74404
2.06	-0.416881	0.127067	-0.129096	-0.283016	0.756613	-0.559276	1.25016	-0.0958569	0.21243	1.3776	0.489544	-0.381215	0	1.16732	-0.186766	-0.088795	1.34123	0.442633	-0.509717	0	-0.0246423	-0.0561098	0.130706	2.64682	-0.0588071	0.532305	1.37167	1.92078	2.68964	-0.197606	0.729286	1.3771	1.71552
2.07	-0.409122	0.128917	-0.133193	-0.276169	0.772681	-0.558631	1.20859	-0.0978013	0.199274	1.32921	0.477552	-0.332315	0	1.12209	-0.178489	-0.107469	1.28863	0.437916	-0.458487	0	-0.00595459	-0.0554329	0.132494	2.68522	-0.0589431	0.556705	1.31704	1.89805	2.73448	-0.191231	0.759381	1.3182	1.68535
2.08	-0.39861	0.13015	-0.137697	-0.269294	0.789743	-0.55781	1.16329	-0.0998782	0.186345	1.27793	0.459238	-0.281679	0	1.07271	-0.170409	-0.126178	1.23217	0.426651	-0.406738	0	0.0103686	-0.0551602	0.132868	2.71441	-0.0584714	0.570007	1.26312	1.88135	2.76977	-0.181839	0.77778	1.25864	1.66877
2.09	-0.384803	0.131097	-0.141401	-0.262588	0.807816	-0.556947	1.11427	-0.103315	0.174258	1.22421	0.433588	-0.234829	0	1.0191	-0.161022	-0.144703	1.17183	0.407869	-0.35407	0	0.022782	-0.0555908	0.130572	2.7358	-0.0566088	0.572263	1.21026	1.86465	2.79803	-0.171438	0.787749	1.19942	1.6666
2.1	-0.369117	0.131574	-0.143418	-0.256092	0.826741	-0.556115	1.06269	-0.108501	0.161816	1.16765	0.400081	-0.193087	0	0.963203	-0.14999	-0.162004	1.10776	0.379601	-0.303639	0	0.0325135	-0.056343	0.124935	2.7509	-0.0544678	0.568047	1.15904	1.84887	2.82098	-0.160397	0.792873	1.14152	1.67614
2.11	-0.352904	0.130852	-0.143999	-0.249753	0.846401	-0.555325	1.00898	-0.115048	0.146535	1.10704	0.36028	-0.145131	0	0.906378	-0.138508	-0.177174	1.03997	0.342438	-0.25459	0	0.0409967	-0.0564401	0.116348	2.76057	-0.0535502	0.562547	1.11072	1.83557	2.83957	-0.149053	0.796698	1.08696	1.68872
2.12	-0.336396	0.128381	-0.143752	-0.243605	0.866749	-0.554598	0.953129	-0.121849	0.128223	1.04193	0.313302	-0.0877114	0	0.848869	-0.127373	-0.188828	0.968636	0.295497	-0.205714	0	0.048218	-0.055172	0.106189	2.76599	-0.054547	0.559226	1.06588	1.82494	2.85422	-0.13792	0.801811	1.0379	1.69647
2.13	-0.319781	0.124507	-0.142851	-0.237772	0.887706	-0.554006	0.895719	-0.128281	0.108819	0.97251	0.257081	-0.0293047	0	0.79089	-0.116249	-0.195734	0.893604	0.237223	-0.158769	0	0.0540209	-0.052695	0.0960417	2.76866	-0.0576309	0.560339	1.02454	1.81641	2.86484	-0.127546	0.807438	0.996261	1.69667
2.14	-0.303713	0.120443	-0.141084	-0.232346	0.909165	-0.553616	0.837609	-0.135519	0.0888613	0.898277	0.191156	0.026658	0	0.732452	-0.104571	-0.198847	0.813541	0.167859	-0.115473	0	0.0589387	-0.0497067	0.0865126	2.76927	-0.0617885	0.566816	0.986716	1.81176	2.8713	-0.119523	0.812438	0.963906	1.69507
2.15	-0.288538	0.117238	-0.138742	-0.227284	0.931046	-0.553335	0.779039	-0.14472	0.0674912	0.818244	0.114347	0.0835983	0	0.672794	-0.0927179	-0.200711	0.726813	0.0868408	-0.0755666	0	0.0636367	-0.0467018	0.0781706	2.76726	-0.0653613	0.577981	0.952991	1.81353	2.87317	-0.115734	0.818119	0.941839	1.7017
2.16	-0.274091	0.115125	-0.136822	-0.222473	0.953233	-0.552951	0.719366	-0.155122	0.0452094	0.731297	0.024268	0.142382	0	0.611139	-0.0818987	-0.203835	0.6329	-0.00843545	-0.038754	0	0.068643	-0.0441418	0.0728023	2.76149	-0.069206	0.593343	0.925976	1.81963	2.86944	-0.1156	0.82369	0.928916	1.71786
2.17	-0.260445	0.114054	-0.13561	-0.217927	0.975519	-0.552391	0.657908	-0.165875	0.0232332	0.636329	-0.0797546	0.199139	0	0.548139	-0.0728585	-0.210928	0.532553	-0.118804	-0.00458783	0	0.0744251	-0.0428559	0.071217	2.7511	-0.0761712	0.612712	0.909099	1.82356	2.86008	-0.116778	0.826927	0.922029	1.73487
2.18	-0.248117	0.113864	-0.134309	-0.213795	0.99765	-0.551767	0.595502	-0.177441	0.000905164	0.533799	-0.197793	0.249351	0	0.486033	-0.065511	-0.22413	0.426867	-0.246155	0.0246941	0	0.0811281	-0.0430242	0.0717727	2.73641	-0.0863445	0.633427	0.901981	1.82196	2.84695	-0.118752	0.830907	0.918754	1.74754
2.19	-0.237385	0.114016	-0.132857	-0.210133	1.01936	-0.551149	0.534098	-0.189744	-0.0242042	0.425369	-0.331961	0.291818	0	0.426659	-0.0599737	-0.245308	0.316363	-0.395336	0.0437395	0	0.0884609	-0.0437478	0.073136	2.71887	-0.0971503	0.651733	0.900307	1.81839	2.83219	-0.122443	0.840818	0.918465	1.75951
2.2	-0.228293	0.114371	-0.13246	-0.206908	1.04035	-0.550449	0.47503	-0.201013	-0.0540293	0.31271	-0.475632	0.324847	0	0.370893	-0.0558211	-0.277102	0.203895	-0.54996	0.0623349	0	0.0961913	-0.0446592	0.0759599	2.70052	-0.107536	0.667797	0.900709	1.8123	2.8168	-0.127368	0.854429	0.919004	1.78612
2.21	-0.221428	0.115381	-0.133996	-0.204299	1.06027	-0.549577	0.420777	-0.20892	-0.087651	0.203015	-0.597216	0.343383	0	0.322097	-0.0510182	-0.310657	0.100898	-0.656751	0.109597	0	0.104392	-0.0461923	0.0803083	2.68284	-0.117142	0.680638	0.900445	1.81611	2.80217	-0.133166	0.870768	0.922053	1.79646
2.22	-0.217746	0.115352	-0.136712	-0.20265	1.07893	-0.54854	0.376725	-0.210807	-0.120011	0.111726	-0.661833	0.342166	0	0.286522	-0.0468606	-0.313801	0.0238799	-0.683254	0.179845	0	0.113066	-0.0463992	0.0849488	2.66711	-0.125493	0.691799	0.898993	1.81898	2.7884	-0.139544	0.883873	0.924834	1.808
2.23	-0.217997	0.112513	-0.139101	-0.202155	1.09614	-0.547316	0.349977	-0.207072	-0.155222	0.0539267	-0.675744	0.322261	0	0.271068	-0.0493648	-0.312581	0	-0.660824	0.253436	0	0.122592	-0.0435153	0.0884849	2.65343	-0.132354	0.700843	0.896464	1.821	2.7751	-0.145789	0.892753	0.927705	1.82291
2.24	-0.221118	0.108971	-0.140342	-0.202616	1.11188	-0.546121	0.345059	-0.203554	-0.215566	0.0377262	-0.676647	0.299519	0	0.275482	-0.0564142	-0.33803	0	-0.651329	0.300179	0	0.132767	-0.0397111	0.0913148	2.641	-0.138126	0.707408	0.894476	1.82406	2.76064	-0.150939	0.897329	0.932792	1.83171
2.25	-0.22493	0.106821	-0.140081	-0.203834	1.1264	-0.54503	0.354569	-0.204382	-0.292986	0.0528469	-0.68545	0.276124	0	0.290095	-0.0652018	-0.387877	0.00762681	-0.667054	0.312373	0	0.141941	-0.0374205	0.0942145	2.62904	-0.143316	0.711275	0.895401	1.82751	2.74336	-0.154903	0.894849	0.940415	1.83695
2.26	-0.227633	0.105365	-0.137762	-0.205503	1.13999	-0.544002	0.365341	-0.20948	-0.360815	0.0802169	-0.695404	0.257854	0	0.304412	-0.075337	-0.440488	0.0348983	-0.683163	0.310706	0	0.14846	-0.0363355	0.0970584	2.61741	-0.148873	0.71342	0.900954	1.83089	2.72218	-0.158363	0.883267	0.951159	1.84526
2.27	-0.227315	0.103953	-0.134657	-0.20706	1.15292	-0.543108	0.367802	-0.214715	-0.383584	0.103002	-0.702692	0.242794	0	0.311226	-0.0825624	-0.44637	0.0525161	-0.689713	0.292665	0	0.150989	-0.0356107	0.100526	2.60578	-0.155127	0.714207	0.911479	1.83267	2.69729	-0.162098	0.866563	0.967326	1.85173
2.28	-0.224095	0.10242	-0.130297	-0.208185	1.1652	-0.54258	0.361702	-0.21844	-0.36578	0.11712	-0.708564	0.234204	0	0.310988	-0.0851965	-0.414009	0.0581994	-0.691392	0.270562	0	0.150401	-0.0348338	0.103458	2.59328	-0.161534	0.713189	0.925658	1.83484	2.66838	-0.165565	0.845771	0.987953	1.85905
2.29	-0.218406	0.100851	-0.124176	-0.208916	1.17677	-0.542362	0.349653	-0.220772	-0.328011	0.125687	-0.712028	0.22791	0	0.305451	-0.0849425	-0.37883	0.055905	-0.691053	0.257093	0	0.147556	-0.0344398	0.102809	2.57802	-0.166673	0.707564	0.941867	1.83894	2.63823	-0.169432	0.826946	1.00931	1.86304
2.3	-0.211305	0.098917	-0.116824	-0.209525	1.18753	-0.542265	0.336418	-0.223198	-0.301592	0.135059	-0.711801	0.22889	0	0.297836	-0.0845229	-0.365666	0.0508936	-0.689626	0.256562	0	0.143543	-0.0343899	0.0979991	2.56011	-0.171024	0.699181	0.958804	1.84401	2.60898	-0.17327	0.813067	1.02824	1.86453
2.31	-0.203713	0.0965388	-0.109494	-0.210202	1.19736	-0.542123	0.324319	-0.225357	-0.293057	0.14546	-0.71055	0.23338	0	0.290712	-0.0848799	-0.371184	0.0466545	-0.68661	0.260492	0	0.139126	-0.0347335	0.0902528	2.54105	-0.175211	0.690576	0.974564	1.85109	2.58279	-0.175723	0.806857	1.04299	1.8641
2.32	-0.196379	0.0940838	-0.102371	-0.210971	1.20609	-0.541804	0.312719	-0.226548	-0.29634	0.152872	-0.707927	0.238836	0	0.285407	-0.0860693	-0.386114	0.0447905	-0.6799	0.266566	0	0.13484	-0.0360471	0.0800684	2.52253	-0.179091	0.683067	0.987138	1.86123	2.56183	-0.176704	0.809961	1.05256	1.8615
